<svg xmlns="http://www.w3.org/2000/svg" width="14" height="14" viewBox="0 0 14 14">
  <path id="_" data-name="" d="M13,0H.969A1.008,1.008,0,0,0,0,1.031V13a.981.981,0,0,0,.969,1H13a1.007,1.007,0,0,0,1-1V1.031A1.035,1.035,0,0,0,13,0ZM4.219,12H2.156V5.344H4.219ZM3.188,4.406A1.194,1.194,0,0,1,1.969,3.219a1.2,1.2,0,1,1,2.406,0A1.187,1.187,0,0,1,3.188,4.406ZM12,12H9.906V8.75C9.906,8,9.906,7,8.844,7c-1.094,0-1.25.844-1.25,1.719V12H5.531V5.344H7.5V6.25h.031A2.2,2.2,0,0,1,9.5,5.156c2.094,0,2.5,1.406,2.5,3.188Z" fill="#fff"/>
</svg>
