<svg xmlns="http://www.w3.org/2000/svg" width="14" height="14" viewBox="0 0 14 14">
  <path id="_" data-name="" d="M8,3.406A3.594,3.594,0,1,0,11.594,7,3.594,3.594,0,0,0,8,3.406ZM8,9.344A2.341,2.341,0,0,1,5.656,7,2.328,2.328,0,1,1,8,9.344Zm4.563-6.062a.844.844,0,1,0-.844.844A.84.84,0,0,0,12.563,3.281Zm2.375.844a4.213,4.213,0,0,0-1.125-2.937A4.213,4.213,0,0,0,10.875.063C9.719,0,6.25,0,5.094.063A4.268,4.268,0,0,0,2.156,1.188,4.213,4.213,0,0,0,1.031,4.125c-.062,1.156-.062,4.625,0,5.781a4.268,4.268,0,0,0,1.125,2.938,4.269,4.269,0,0,0,2.938,1.125c1.156.062,4.625.062,5.781,0a4.214,4.214,0,0,0,2.938-1.125,4.268,4.268,0,0,0,1.125-2.938C15,8.75,15,5.281,14.938,4.125Zm-1.5,7a2.317,2.317,0,0,1-1.312,1.344A15.13,15.13,0,0,1,8,12.75a14.959,14.959,0,0,1-4.125-.281,2.369,2.369,0,0,1-1.344-1.344A14.959,14.959,0,0,1,2.25,7a15.13,15.13,0,0,1,.281-4.125A2.41,2.41,0,0,1,3.875,1.563,14.959,14.959,0,0,1,8,1.281a15.13,15.13,0,0,1,4.125.281,2.355,2.355,0,0,1,1.313,1.313A15.13,15.13,0,0,1,13.719,7,14.959,14.959,0,0,1,13.438,11.125Z" transform="translate(-0.984 -0.016)" fill="#fff"/>
</svg>
