<svg xmlns="http://www.w3.org/2000/svg" width="15.969" height="12.969" viewBox="0 0 15.969 12.969">
  <path id="_" data-name="" d="M14.344,3.75a6.952,6.952,0,0,0,1.625-1.687,6.151,6.151,0,0,1-1.875.5A3.206,3.206,0,0,0,15.531.75a6.93,6.93,0,0,1-2.062.813,3.294,3.294,0,0,0-5.688,2.25,3.082,3.082,0,0,0,.094.75A9.52,9.52,0,0,1,1.094,1.125,3.192,3.192,0,0,0,.656,2.781,3.228,3.228,0,0,0,2.125,5.5a3.459,3.459,0,0,1-1.5-.406v.031A3.285,3.285,0,0,0,3.25,8.344a3.663,3.663,0,0,1-.844.125,4.235,4.235,0,0,1-.625-.062,3.265,3.265,0,0,0,3.063,2.281A6.6,6.6,0,0,1,.781,12.094,6.078,6.078,0,0,1,0,12.031,9.142,9.142,0,0,0,5.031,13.5a9.231,9.231,0,0,0,9.313-9.312Z" transform="translate(0 -0.531)" fill="#fff"/>
</svg>
